# xmcd
#
# Track frame offsets: 
#        182
#        17027
#        29220
#        41920
#        52922
#        64262
#        74715
#        97742
#        109187
#        130287
#        141802
#        156917
#        168835
#        181740
#
# Disc length: 2621 seconds
#
# Revision: 2
# Processed by: cddbd v1.5.2PL0 Copyright (c) Steve Scherf et al.
# Submitted via: ExactAudioCopy v0.99pb4
#
DISCID=c60a3b0e
DTITLE=Johnny Cash - American II - Unchained - American
DYEAR=1996
DGENRE=Country
TTITLE0=Rowboat
TTITLE1=Sea of Heartbreak
TTITLE2=Rusty Cage
TTITLE3=The One Rose
TTITLE4=Country Boy
TTITLE5=Memories are made of this
TTITLE6=Spiritual
TTITLE7=Kneeling Drunkards Plea
TTITLE8=Southern Accents
TTITLE9=Mean Eyed Cat
TTITLE10=Meet me in Heaven
TTITLE11=I never Picked Cotton
TTITLE12=Unchained
TTITLE13=I've been everywhere
EXTD=YEAR: 1996
EXTT0=
EXTT1=
EXTT2=
EXTT3=
EXTT4=
EXTT5=
EXTT6=
EXTT7=
EXTT8=
EXTT9=
EXTT10=
EXTT11=
EXTT12=
EXTT13=
PLAYORDER=
